<svg id="svgQrWrapper" viewBox="0 0 300 300" xmlns="http://www.w3.org/2000/svg" xmlns:xlink="http://www.w3.org/1999/xlink" width="300" height="300" style="width: 100%; height: 100%; background-color: rgb(255, 255, 255);"><svg><g transform="translate(9, 9)scale(0.95)" fill="none"><svg width="300" height="300"><style>.background-color{ fill: transparent; }.dot-color{ fill: #000000; }.corners-square-color-0-0{ fill: #000000; }.corners-dot-color-0-0{ fill: #000000; }.corners-square-color-1-0{ fill: #000000; }.corners-dot-color-1-0{ fill: #000000; }.corners-square-color-0-1{ fill: #000000; }.corners-dot-color-0-1{ fill: #000000; }</style><defs/><g class="dot-color"><path d="M 6.428571428571429 96.42857142857143v 7.142857142857143h 7.142857142857143v -7.142857142857143z" transform="rotate(45,10,100)"/><path d="M 6.428571428571429 116.42857142857143v 7.142857142857143h 7.142857142857143v -7.142857142857143z" transform="rotate(45,10,120)"/><path d="M 6.428571428571429 156.42857142857142v 7.142857142857143h 7.142857142857143v -7.142857142857143z" transform="rotate(45,10,160)"/><path d="M 6.428571428571429 176.42857142857142v 7.142857142857143h 7.142857142857143v -7.142857142857143z" transform="rotate(45,10,180)"/><path d="M 5 195v 10h 5l 5 -5l -5 -5h -5z" transform="rotate(-90,10,200)"/><path d="M 5 205v 10h 5l 5 -5l -5 -5h -5z" transform="rotate(90,10,210)"/><path d="M 15 85v 10h 5l 5 -5l -5 -5h -5z" transform="rotate(-90,20,90)"/><path d="M 15 95v 10h 5l 5 -5l -5 -5h -5z" transform="rotate(90,20,100)"/><path d="M 15 175v 10h 5l 5 -5l -5 -5h -5z" transform="rotate(-90,20,180)"/><path d="M 15 185v 10h 5l 5 -5l -5 -5h -5z" transform="rotate(90,20,190)"/><path d="M 26.428571428571427 86.42857142857143v 7.142857142857143h 7.142857142857143v -7.142857142857143z" transform="rotate(45,30,90)"/><path d="M 25 125v 10h 5l 5 -5l -5 -5h -5z" transform="rotate(-90,30,130)"/><rect x="25" y="135" width="10" height="10" transform="rotate(0,30,140)"/><rect x="25" y="145" width="10" height="10" transform="rotate(0,30,150)"/><path d="M 25 155v 10h 5l 5 -5l -5 -5h -5z" transform="rotate(90,30,160)"/><path d="M 26.428571428571427 186.42857142857142v 7.142857142857143h 7.142857142857143v -7.142857142857143z" transform="rotate(45,30,190)"/><path d="M 26.428571428571427 206.42857142857142v 7.142857142857143h 7.142857142857143v -7.142857142857143z" transform="rotate(45,30,210)"/><path d="M 35 115v 10h 5l 5 -5l -5 -5h -5z" transform="rotate(-90,40,120)"/><rect x="35" y="125" width="10" height="10" transform="rotate(0,40,130)"/><path d="M 35 135v 10h 5l 5 -5l -5 -5h -5z" transform="rotate(90,40,140)"/><path d="M 36.42857142857143 156.42857142857142v 7.142857142857143h 7.142857142857143v -7.142857142857143z" transform="rotate(45,40,160)"/><path d="M 36.42857142857143 176.42857142857142v 7.142857142857143h 7.142857142857143v -7.142857142857143z" transform="rotate(45,40,180)"/><path d="M 46.42857142857143 96.42857142857143v 7.142857142857143h 7.142857142857143v -7.142857142857143z" transform="rotate(45,50,100)"/><path d="M 45 115v 10h 5l 5 -5l -5 -5h -5z" transform="rotate(-90,50,120)"/><path d="M 45 125v 10h 5l 5 -5l -5 -5h -5z" transform="rotate(90,50,130)"/><path d="M 46.42857142857143 156.42857142857142v 7.142857142857143h 7.142857142857143v -7.142857142857143z" transform="rotate(45,50,160)"/><path d="M 46.42857142857143 196.42857142857142v 7.142857142857143h 7.142857142857143v -7.142857142857143z" transform="rotate(45,50,200)"/><path d="M 55 105v 10h 5l 5 -5l -5 -5h -5z" transform="rotate(-90,60,110)"/><rect x="55" y="115" width="10" height="10" transform="rotate(0,60,120)"/><path d="M 55 125v 10h 5l 5 -5l -5 -5h -5z" transform="rotate(90,60,130)"/><path d="M 56.42857142857143 146.42857142857142v 7.142857142857143h 7.142857142857143v -7.142857142857143z" transform="rotate(45,60,150)"/><path d="M 56.42857142857143 166.42857142857142v 7.142857142857143h 7.142857142857143v -7.142857142857143z" transform="rotate(45,60,170)"/><path d="M 56.42857142857143 196.42857142857142v 7.142857142857143h 7.142857142857143v -7.142857142857143z" transform="rotate(45,60,200)"/><path d="M 66.42857142857143 86.42857142857143v 7.142857142857143h 7.142857142857143v -7.142857142857143z" transform="rotate(45,70,90)"/><path d="M 66.42857142857143 106.42857142857143v 7.142857142857143h 7.142857142857143v -7.142857142857143z" transform="rotate(45,70,110)"/><path d="M 66.42857142857143 126.42857142857143v 7.142857142857143h 7.142857142857143v -7.142857142857143z" transform="rotate(45,70,130)"/><path d="M 66.42857142857143 146.42857142857142v 7.142857142857143h 7.142857142857143v -7.142857142857143z" transform="rotate(45,70,150)"/><path d="M 66.42857142857143 166.42857142857142v 7.142857142857143h 7.142857142857143v -7.142857142857143z" transform="rotate(45,70,170)"/><path d="M 66.42857142857143 186.42857142857142v 7.142857142857143h 7.142857142857143v -7.142857142857143z" transform="rotate(45,70,190)"/><path d="M 66.42857142857143 206.42857142857142v 7.142857142857143h 7.142857142857143v -7.142857142857143z" transform="rotate(45,70,210)"/><path d="M 76.42857142857143 96.42857142857143v 7.142857142857143h 7.142857142857143v -7.142857142857143z" transform="rotate(45,80,100)"/><path d="M 76.42857142857143 116.42857142857143v 7.142857142857143h 7.142857142857143v -7.142857142857143z" transform="rotate(45,80,120)"/><path d="M 76.42857142857143 156.42857142857142v 7.142857142857143h 7.142857142857143v -7.142857142857143z" transform="rotate(45,80,160)"/><path d="M 75 175v 10h 5l 5 -5l -5 -5h -5z" transform="rotate(-90,80,180)"/><rect x="75" y="185" width="10" height="10" transform="rotate(0,80,190)"/><path d="M 75 195v 10h 5l 5 -5l -5 -5h -5z" transform="rotate(90,80,200)"/><path d="M 85 15v 10h 5l 5 -5l -5 -5h -5z" transform="rotate(-90,90,20)"/><rect x="85" y="25" width="10" height="10" transform="rotate(0,90,30)"/><path d="M 85 35v 10h 5l 5 -5l -5 -5h -5z" transform="rotate(90,90,40)"/><path d="M 85 55v 10h 5l 5 -5l -5 -5h -5z" transform="rotate(-90,90,60)"/><path d="M 85 65v 10h 5l 5 -5l -5 -5h -5z" transform="rotate(90,90,70)"/><path d="M 86.42857142857143 126.42857142857143v 7.142857142857143h 7.142857142857143v -7.142857142857143z" transform="rotate(45,90,130)"/><path d="M 86.42857142857143 146.42857142857142v 7.142857142857143h 7.142857142857143v -7.142857142857143z" transform="rotate(45,90,150)"/><path d="M 86.42857142857143 166.42857142857142v 7.142857142857143h 7.142857142857143v -7.142857142857143z" transform="rotate(45,90,170)"/><path d="M 86.42857142857143 206.42857142857142v 7.142857142857143h 7.142857142857143v -7.142857142857143z" transform="rotate(45,90,210)"/><path d="M 85 265v 10h 5l 5 -5l -5 -5h -5z" transform="rotate(-90,90,270)"/><path d="M 85 275v 10h 5l 5 -5l -5 -5h -5z" transform="rotate(90,90,280)"/><path d="M 95 45v 10h 5l 5 -5l -5 -5h -5z" transform="rotate(-90,100,50)"/><path d="M 95 55v 10h 5l 5 -5l -5 -5h -5z" transform="rotate(90,100,60)"/><path d="M 96.42857142857143 76.42857142857143v 7.142857142857143h 7.142857142857143v -7.142857142857143z" transform="rotate(45,100,80)"/><path d="M 95 105v 10h 5l 5 -5l -5 -5h -5z" transform="rotate(-90,100,110)"/><path d="M 95 115v 10h 5l 5 -5l -5 -5h -5z" transform="rotate(90,100,120)"/><path d="M 96.42857142857143 136.42857142857142v 7.142857142857143h 7.142857142857143v -7.142857142857143z" transform="rotate(45,100,140)"/><path d="M 96.42857142857143 156.42857142857142v 7.142857142857143h 7.142857142857143v -7.142857142857143z" transform="rotate(45,100,160)"/><path d="M 95 185v 10h 5l 5 -5l -5 -5h -5z" transform="rotate(-90,100,190)"/><path d="M 95 195v 10h 5l 5 -5l -5 -5h -5z" transform="rotate(90,100,200)"/><path d="M 95 225v 10h 5l 5 -5l -5 -5h -5z" transform="rotate(-90,100,230)"/><rect x="95" y="235" width="10" height="10" transform="rotate(0,100,240)"/><rect x="95" y="245" width="10" height="10" transform="rotate(0,100,250)"/><rect x="95" y="255" width="10" height="10" transform="rotate(0,100,260)"/><path d="M 95 265v 10h 5l 5 -5l -5 -5h -5z" transform="rotate(90,100,270)"/><path d="M 96.42857142857143 286.42857142857144v 7.142857142857143h 7.142857142857143v -7.142857142857143z" transform="rotate(45,100,290)"/><path d="M 106.42857142857143 6.428571428571429v 7.142857142857143h 7.142857142857143v -7.142857142857143z" transform="rotate(45,110,10)"/><path d="M 106.42857142857143 36.42857142857143v 7.142857142857143h 7.142857142857143v -7.142857142857143z" transform="rotate(45,110,40)"/><path d="M 106.42857142857143 66.42857142857143v 7.142857142857143h 7.142857142857143v -7.142857142857143z" transform="rotate(45,110,70)"/><path d="M 105 95v 10h 5l 5 -5l -5 -5h -5z" transform="rotate(-90,110,100)"/><path d="M 105 105v 10h 5l 5 -5l -5 -5h -5z" transform="rotate(90,110,110)"/><path d="M 105 125v 10h 5l 5 -5l -5 -5h -5z" transform="rotate(-90,110,130)"/><path d="M 105 135v 10h 5l 5 -5l -5 -5h -5z" transform="rotate(90,110,140)"/><path d="M 105 175v 10h 5l 5 -5l -5 -5h -5z" transform="rotate(-90,110,180)"/><path d="M 105 185v 10h 5l 5 -5l -5 -5h -5z" transform="rotate(90,110,190)"/><path d="M 105 225v 10h 5l 5 -5l -5 -5h -5z" transform="rotate(-90,110,230)"/><path d="M 105 235v 10h 5l 5 -5l -5 -5h -5z" transform="rotate(90,110,240)"/><path d="M 106.42857142857143 256.42857142857144v 7.142857142857143h 7.142857142857143v -7.142857142857143z" transform="rotate(45,110,260)"/><path d="M 106.42857142857143 276.42857142857144v 7.142857142857143h 7.142857142857143v -7.142857142857143z" transform="rotate(45,110,280)"/><path d="M 115 5v 10h 5l 5 -5l -5 -5h -5z" transform="rotate(-90,120,10)"/><rect x="115" y="15" width="10" height="10" transform="rotate(0,120,20)"/><path d="M 115 25v 10h 5l 5 -5l -5 -5h -5z" transform="rotate(90,120,30)"/><path d="M 115 45v 10h 5l 5 -5l -5 -5h -5z" transform="rotate(-90,120,50)"/><path d="M 115 55v 10h 5l 5 -5l -5 -5h -5z" transform="rotate(90,120,60)"/><path d="M 116.42857142857143 76.42857142857143v 7.142857142857143h 7.142857142857143v -7.142857142857143z" transform="rotate(45,120,80)"/><path d="M 116.42857142857143 96.42857142857143v 7.142857142857143h 7.142857142857143v -7.142857142857143z" transform="rotate(45,120,100)"/><path d="M 116.42857142857143 186.42857142857142v 7.142857142857143h 7.142857142857143v -7.142857142857143z" transform="rotate(45,120,190)"/><path d="M 115 235v 10h 5l 5 -5l -5 -5h -5z" transform="rotate(-90,120,240)"/><path d="M 115 245v 10h 5l 5 -5l -5 -5h -5z" transform="rotate(90,120,250)"/><path d="M 116.42857142857143 286.42857142857144v 7.142857142857143h 7.142857142857143v -7.142857142857143z" transform="rotate(45,120,290)"/><path d="M 126.42857142857143 46.42857142857143v 7.142857142857143h 7.142857142857143v -7.142857142857143z" transform="rotate(45,130,50)"/><path d="M 125 65v 10h 5l 5 -5l -5 -5h -5z" transform="rotate(-90,130,70)"/><path d="M 125 75v 10h 5l 5 -5l -5 -5h -5z" transform="rotate(90,130,80)"/><path d="M 126.42857142857143 186.42857142857142v 7.142857142857143h 7.142857142857143v -7.142857142857143z" transform="rotate(45,130,190)"/><path d="M 126.42857142857143 216.42857142857142v 7.142857142857143h 7.142857142857143v -7.142857142857143z" transform="rotate(45,130,220)"/><path d="M 126.42857142857143 236.42857142857142v 7.142857142857143h 7.142857142857143v -7.142857142857143z" transform="rotate(45,130,240)"/><path d="M 125 265v 10h 5l 5 -5l -5 -5h -5z" transform="rotate(-90,130,270)"/><rect x="125" y="275" width="10" height="10" transform="rotate(0,130,280)"/><path d="M 125 285v 10h 5l 5 -5l -5 -5h -5z" transform="rotate(90,130,290)"/><path d="M 136.42857142857142 36.42857142857143v 7.142857142857143h 7.142857142857143v -7.142857142857143z" transform="rotate(45,140,40)"/><path d="M 136.42857142857142 76.42857142857143v 7.142857142857143h 7.142857142857143v -7.142857142857143z" transform="rotate(45,140,80)"/><path d="M 135 95v 10h 5l 5 -5l -5 -5h -5z" transform="rotate(-90,140,100)"/><path d="M 135 105v 10h 5l 5 -5l -5 -5h -5z" transform="rotate(90,140,110)"/><path d="M 135 195v 10h 5l 5 -5l -5 -5h -5z" transform="rotate(-90,140,200)"/><path d="M 135 205v 10h 5l 5 -5l -5 -5h -5z" transform="rotate(90,140,210)"/><path d="M 135 225v 10h 5l 5 -5l -5 -5h -5z" transform="rotate(-90,140,230)"/><path d="M 135 235v 10h 5l 5 -5l -5 -5h -5z" transform="rotate(90,140,240)"/><path d="M 135 255v 10h 5l 5 -5l -5 -5h -5z" transform="rotate(-90,140,260)"/><path d="M 135 265v 10h 5l 5 -5l -5 -5h -5z" transform="rotate(90,140,270)"/><path d="M 136.42857142857142 286.42857142857144v 7.142857142857143h 7.142857142857143v -7.142857142857143z" transform="rotate(45,140,290)"/><path d="M 146.42857142857142 16.428571428571427v 7.142857142857143h 7.142857142857143v -7.142857142857143z" transform="rotate(45,150,20)"/><path d="M 145 45v 10h 5l 5 -5l -5 -5h -5z" transform="rotate(-90,150,50)"/><rect x="145" y="55" width="10" height="10" transform="rotate(0,150,60)"/><rect x="145" y="65" width="10" height="10" transform="rotate(0,150,70)"/><rect x="145" y="75" width="10" height="10" transform="rotate(0,150,80)"/><rect x="145" y="85" width="10" height="10" transform="rotate(0,150,90)"/><path d="M 145 95v 10h 5l 5 -5l -5 -5h -5z" transform="rotate(90,150,100)"/><path d="M 145 185v 10h 5l 5 -5l -5 -5h -5z" transform="rotate(-90,150,190)"/><rect x="145" y="195" width="10" height="10" transform="rotate(0,150,200)"/><path d="M 145 205v 10h 5l 5 -5l -5 -5h -5z" transform="rotate(90,150,210)"/><path d="M 145 225v 10h 5l 5 -5l -5 -5h -5z" transform="rotate(-90,150,230)"/><rect x="145" y="235" width="10" height="10" transform="rotate(0,150,240)"/><rect x="145" y="245" width="10" height="10" transform="rotate(0,150,250)"/><path d="M 145 255v 10h 5l 5 -5l -5 -5h -5z" transform="rotate(90,150,260)"/><path d="M 145 275v 10h 5l 5 -5l -5 -5h -5z" transform="rotate(-90,150,280)"/><path d="M 145 285v 10h 5l 5 -5l -5 -5h -5z" transform="rotate(90,150,290)"/><path d="M 155 5v 10h 5l 5 -5l -5 -5h -5z" transform="rotate(-90,160,10)"/><rect x="155" y="15" width="10" height="10" transform="rotate(0,160,20)"/><rect x="155" y="25" width="10" height="10" transform="rotate(0,160,30)"/><rect x="155" y="35" width="10" height="10" transform="rotate(0,160,40)"/><rect x="155" y="45" width="10" height="10" transform="rotate(0,160,50)"/><path d="M 155 55v 10h 5l 5 -5l -5 -5h -5z" transform="rotate(90,160,60)"/><path d="M 155 75v 10h 5l 5 -5l -5 -5h -5z" transform="rotate(-90,160,80)"/><rect x="155" y="85" width="10" height="10" transform="rotate(0,160,90)"/><rect x="155" y="95" width="10" height="10" transform="rotate(0,160,100)"/><path d="M 155 105v 10h 5l 5 -5l -5 -5h -5z" transform="rotate(90,160,110)"/><path d="M 156.42857142857142 186.42857142857142v 7.142857142857143h 7.142857142857143v -7.142857142857143z" transform="rotate(45,160,190)"/><path d="M 156.42857142857142 216.42857142857142v 7.142857142857143h 7.142857142857143v -7.142857142857143z" transform="rotate(45,160,220)"/><path d="M 155 245v 10h 5l 5 -5l -5 -5h -5z" transform="rotate(-90,160,250)"/><path d="M 155 255v 10h 5l 5 -5l -5 -5h -5z" transform="rotate(90,160,260)"/><path d="M 156.42857142857142 286.42857142857144v 7.142857142857143h 7.142857142857143v -7.142857142857143z" transform="rotate(45,160,290)"/><path d="M 165 25v 10h 5l 5 -5l -5 -5h -5z" transform="rotate(-90,170,30)"/><path d="M 165 35v 10h 5l 5 -5l -5 -5h -5z" transform="rotate(90,170,40)"/><path d="M 165 55v 10h 5l 5 -5l -5 -5h -5z" transform="rotate(-90,170,60)"/><rect x="165" y="65" width="10" height="10" transform="rotate(0,170,70)"/><path d="M 165 75v 10h 5l 5 -5l -5 -5h -5z" transform="rotate(90,170,80)"/><path d="M 166.42857142857142 186.42857142857142v 7.142857142857143h 7.142857142857143v -7.142857142857143z" transform="rotate(45,170,190)"/><path d="M 166.42857142857142 216.42857142857142v 7.142857142857143h 7.142857142857143v -7.142857142857143z" transform="rotate(45,170,220)"/><path d="M 165 235v 10h 5l 5 -5l -5 -5h -5z" transform="rotate(-90,170,240)"/><rect x="165" y="245" width="10" height="10" transform="rotate(0,170,250)"/><path d="M 165 255v 10h 5l 5 -5l -5 -5h -5z" transform="rotate(90,170,260)"/><path d="M 175 15v 10h 5l 5 -5l -5 -5h -5z" transform="rotate(-90,180,20)"/><path d="M 175 25v 10h 5l 5 -5l -5 -5h -5z" transform="rotate(90,180,30)"/><path d="M 176.42857142857142 46.42857142857143v 7.142857142857143h 7.142857142857143v -7.142857142857143z" transform="rotate(45,180,50)"/><path d="M 176.42857142857142 76.42857142857143v 7.142857142857143h 7.142857142857143v -7.142857142857143z" transform="rotate(45,180,80)"/><path d="M 175 95v 10h 5l 5 -5l -5 -5h -5z" transform="rotate(-90,180,100)"/><path d="M 175 105v 10h 5l 5 -5l -5 -5h -5z" transform="rotate(90,180,110)"/><path d="M 176.42857142857142 236.42857142857142v 7.142857142857143h 7.142857142857143v -7.142857142857143z" transform="rotate(45,180,240)"/><path d="M 176.42857142857142 266.42857142857144v 7.142857142857143h 7.142857142857143v -7.142857142857143z" transform="rotate(45,180,270)"/><path d="M 186.42857142857142 6.428571428571429v 7.142857142857143h 7.142857142857143v -7.142857142857143z" transform="rotate(45,190,10)"/><path d="M 186.42857142857142 46.42857142857143v 7.142857142857143h 7.142857142857143v -7.142857142857143z" transform="rotate(45,190,50)"/><path d="M 185 65v 10h 5l 5 -5l -5 -5h -5z" transform="rotate(-90,190,70)"/><path d="M 185 75v 10h 5l 5 -5l -5 -5h -5z" transform="rotate(90,190,80)"/><path d="M 185 145v 10h 5l 5 -5l -5 -5h -5z" transform="rotate(-90,190,150)"/><rect x="185" y="155" width="10" height="10" transform="rotate(0,190,160)"/><path d="M 185 165v 10h 5l 5 -5l -5 -5h -5z" transform="rotate(90,190,170)"/><path d="M 186.42857142857142 226.42857142857142v 7.142857142857143h 7.142857142857143v -7.142857142857143z" transform="rotate(45,190,230)"/><path d="M 185 245v 10h 5l 5 -5l -5 -5h -5z" transform="rotate(-90,190,250)"/><path d="M 185 255v 10h 5l 5 -5l -5 -5h -5z" transform="rotate(90,190,260)"/><path d="M 196.42857142857142 26.428571428571427v 7.142857142857143h 7.142857142857143v -7.142857142857143z" transform="rotate(45,200,30)"/><path d="M 195 95v 10h 5l 5 -5l -5 -5h -5z" transform="rotate(-90,200,100)"/><path d="M 195 105v 10h 5l 5 -5l -5 -5h -5z" transform="rotate(90,200,110)"/><path d="M 196.42857142857142 126.42857142857143v 7.142857142857143h 7.142857142857143v -7.142857142857143z" transform="rotate(45,200,130)"/><path d="M 196.42857142857142 146.42857142857142v 7.142857142857143h 7.142857142857143v -7.142857142857143z" transform="rotate(45,200,150)"/><path d="M 195 175v 10h 5l 5 -5l -5 -5h -5z" transform="rotate(-90,200,180)"/><path d="M 195 185v 10h 5l 5 -5l -5 -5h -5z" transform="rotate(90,200,190)"/><path d="M 195 215v 10h 5l 5 -5l -5 -5h -5z" transform="rotate(-90,200,220)"/><path d="M 195 225v 10h 5l 5 -5l -5 -5h -5z" transform="rotate(90,200,230)"/><path d="M 196.42857142857142 266.42857142857144v 7.142857142857143h 7.142857142857143v -7.142857142857143z" transform="rotate(45,200,270)"/><path d="M 206.42857142857142 16.428571428571427v 7.142857142857143h 7.142857142857143v -7.142857142857143z" transform="rotate(45,210,20)"/><path d="M 205 35v 10h 5l 5 -5l -5 -5h -5z" transform="rotate(-90,210,40)"/><rect x="205" y="45" width="10" height="10" transform="rotate(0,210,50)"/><rect x="205" y="55" width="10" height="10" transform="rotate(0,210,60)"/><path d="M 205 65v 10h 5l 5 -5l -5 -5h -5z" transform="rotate(90,210,70)"/><path d="M 206.42857142857142 106.42857142857143v 7.142857142857143h 7.142857142857143v -7.142857142857143z" transform="rotate(45,210,110)"/><path d="M 205 165v 10h 5l 5 -5l -5 -5h -5z" transform="rotate(-90,210,170)"/><rect x="205" y="175" width="10" height="10" transform="rotate(0,210,180)"/><rect x="205" y="185" width="10" height="10" transform="rotate(0,210,190)"/><rect x="205" y="195" width="10" height="10" transform="rotate(0,210,200)"/><rect x="205" y="205" width="10" height="10" transform="rotate(0,210,210)"/><rect x="205" y="215" width="10" height="10" transform="rotate(0,210,220)"/><rect x="205" y="225" width="10" height="10" transform="rotate(0,210,230)"/><rect x="205" y="235" width="10" height="10" transform="rotate(0,210,240)"/><rect x="205" y="245" width="10" height="10" transform="rotate(0,210,250)"/><rect x="205" y="255" width="10" height="10" transform="rotate(0,210,260)"/><rect x="205" y="265" width="10" height="10" transform="rotate(0,210,270)"/><path d="M 205 275v 10h 5l 5 -5l -5 -5h -5z" transform="rotate(90,210,280)"/><path d="M 215 85v 10h 5l 5 -5l -5 -5h -5z" transform="rotate(-90,220,90)"/><rect x="215" y="95" width="10" height="10" transform="rotate(0,220,100)"/><path d="M 215 105v 10h 5l 5 -5l -5 -5h -5z" transform="rotate(90,220,110)"/><path d="M 216.42857142857142 126.42857142857143v 7.142857142857143h 7.142857142857143v -7.142857142857143z" transform="rotate(45,220,130)"/><path d="M 216.42857142857142 146.42857142857142v 7.142857142857143h 7.142857142857143v -7.142857142857143z" transform="rotate(45,220,150)"/><path d="M 215 195v 10h 5l 5 -5l -5 -5h -5z" transform="rotate(-90,220,200)"/><path d="M 215 205v 10h 5l 5 -5l -5 -5h -5z" transform="rotate(90,220,210)"/><path d="M 215 245v 10h 5l 5 -5l -5 -5h -5z" transform="rotate(-90,220,250)"/><path d="M 215 255v 10h 5l 5 -5l -5 -5h -5z" transform="rotate(90,220,260)"/><path d="M 215 275v 10h 5l 5 -5l -5 -5h -5z" transform="rotate(-90,220,280)"/><path d="M 215 285v 10h 5l 5 -5l -5 -5h -5z" transform="rotate(90,220,290)"/><path d="M 226.42857142857142 96.42857142857143v 7.142857142857143h 7.142857142857143v -7.142857142857143z" transform="rotate(45,230,100)"/><path d="M 226.42857142857142 116.42857142857143v 7.142857142857143h 7.142857142857143v -7.142857142857143z" transform="rotate(45,230,120)"/><path d="M 226.42857142857142 136.42857142857142v 7.142857142857143h 7.142857142857143v -7.142857142857143z" transform="rotate(45,230,140)"/><path d="M 226.42857142857142 176.42857142857142v 7.142857142857143h 7.142857142857143v -7.142857142857143z" transform="rotate(45,230,180)"/><path d="M 225 195v 10h 5l 5 -5l -5 -5h -5z" transform="rotate(-90,230,200)"/><path d="M 225 205v 10h 5l 5 -5l -5 -5h -5z" transform="rotate(90,230,210)"/><path d="M 226.42857142857142 226.42857142857142v 7.142857142857143h 7.142857142857143v -7.142857142857143z" transform="rotate(45,230,230)"/><path d="M 226.42857142857142 246.42857142857142v 7.142857142857143h 7.142857142857143v -7.142857142857143z" transform="rotate(45,230,250)"/><path d="M 225 265v 10h 5l 5 -5l -5 -5h -5z" transform="rotate(-90,230,270)"/><path d="M 225 275v 10h 5l 5 -5l -5 -5h -5z" transform="rotate(90,230,280)"/><path d="M 236.42857142857142 86.42857142857143v 7.142857142857143h 7.142857142857143v -7.142857142857143z" transform="rotate(45,240,90)"/><path d="M 236.42857142857142 106.42857142857143v 7.142857142857143h 7.142857142857143v -7.142857142857143z" transform="rotate(45,240,110)"/><path d="M 235 125v 10h 5l 5 -5l -5 -5h -5z" transform="rotate(-90,240,130)"/><rect x="235" y="135" width="10" height="10" transform="rotate(0,240,140)"/><rect x="235" y="145" width="10" height="10" transform="rotate(0,240,150)"/><rect x="235" y="155" width="10" height="10" transform="rotate(0,240,160)"/><path d="M 235 165v 10h 5l 5 -5l -5 -5h -5z" transform="rotate(90,240,170)"/><path d="M 236.42857142857142 186.42857142857142v 7.142857142857143h 7.142857142857143v -7.142857142857143z" transform="rotate(45,240,190)"/><path d="M 236.42857142857142 206.42857142857142v 7.142857142857143h 7.142857142857143v -7.142857142857143z" transform="rotate(45,240,210)"/><path d="M 236.42857142857142 246.42857142857142v 7.142857142857143h 7.142857142857143v -7.142857142857143z" transform="rotate(45,240,250)"/><path d="M 245 95v 10h 5l 5 -5l -5 -5h -5z" transform="rotate(-90,250,100)"/><rect x="245" y="105" width="10" height="10" transform="rotate(0,250,110)"/><rect x="245" y="115" width="10" height="10" transform="rotate(0,250,120)"/><rect x="245" y="125" width="10" height="10" transform="rotate(0,250,130)"/><path d="M 245 135v 10h 5l 5 -5l -5 -5h -5z" transform="rotate(90,250,140)"/><path d="M 246.42857142857142 156.42857142857142v 7.142857142857143h 7.142857142857143v -7.142857142857143z" transform="rotate(45,250,160)"/><path d="M 246.42857142857142 186.42857142857142v 7.142857142857143h 7.142857142857143v -7.142857142857143z" transform="rotate(45,250,190)"/><path d="M 245 205v 10h 5l 5 -5l -5 -5h -5z" transform="rotate(-90,250,210)"/><rect x="245" y="215" width="10" height="10" transform="rotate(0,250,220)"/><rect x="245" y="225" width="10" height="10" transform="rotate(0,250,230)"/><rect x="245" y="235" width="10" height="10" transform="rotate(0,250,240)"/><rect x="245" y="245" width="10" height="10" transform="rotate(0,250,250)"/><rect x="245" y="255" width="10" height="10" transform="rotate(0,250,260)"/><path d="M 245 265v 10h 5l 5 -5l -5 -5h -5z" transform="rotate(90,250,270)"/><path d="M 246.42857142857142 286.42857142857144v 7.142857142857143h 7.142857142857143v -7.142857142857143z" transform="rotate(45,250,290)"/><path d="M 255 85v 10h 5l 5 -5l -5 -5h -5z" transform="rotate(-90,260,90)"/><rect x="255" y="95" width="10" height="10" transform="rotate(0,260,100)"/><path d="M 255 105v 10h 5l 5 -5l -5 -5h -5z" transform="rotate(90,260,110)"/><path d="M 256.42857142857144 126.42857142857143v 7.142857142857143h 7.142857142857143v -7.142857142857143z" transform="rotate(45,260,130)"/><path d="M 255 165v 10h 5l 5 -5l -5 -5h -5z" transform="rotate(-90,260,170)"/><rect x="255" y="175" width="10" height="10" transform="rotate(0,260,180)"/><rect x="255" y="185" width="10" height="10" transform="rotate(0,260,190)"/><path d="M 255 195v 10h 5l 5 -5l -5 -5h -5z" transform="rotate(90,260,200)"/><path d="M 255 245v 10h 5l 5 -5l -5 -5h -5z" transform="rotate(-90,260,250)"/><path d="M 255 255v 10h 5l 5 -5l -5 -5h -5z" transform="rotate(90,260,260)"/><path d="M 256.42857142857144 276.42857142857144v 7.142857142857143h 7.142857142857143v -7.142857142857143z" transform="rotate(45,260,280)"/><path d="M 266.42857142857144 86.42857142857143v 7.142857142857143h 7.142857142857143v -7.142857142857143z" transform="rotate(45,270,90)"/><path d="M 266.42857142857144 136.42857142857142v 7.142857142857143h 7.142857142857143v -7.142857142857143z" transform="rotate(45,270,140)"/><path d="M 265 155v 10h 5l 5 -5l -5 -5h -5z" transform="rotate(-90,270,160)"/><path d="M 265 165v 10h 5l 5 -5l -5 -5h -5z" transform="rotate(90,270,170)"/><path d="M 266.42857142857144 206.42857142857142v 7.142857142857143h 7.142857142857143v -7.142857142857143z" transform="rotate(45,270,210)"/><path d="M 266.42857142857144 236.42857142857142v 7.142857142857143h 7.142857142857143v -7.142857142857143z" transform="rotate(45,270,240)"/><path d="M 266.42857142857144 266.42857142857144v 7.142857142857143h 7.142857142857143v -7.142857142857143z" transform="rotate(45,270,270)"/><path d="M 266.42857142857144 286.42857142857144v 7.142857142857143h 7.142857142857143v -7.142857142857143z" transform="rotate(45,270,290)"/><path d="M 276.42857142857144 86.42857142857143v 7.142857142857143h 7.142857142857143v -7.142857142857143z" transform="rotate(45,280,90)"/><path d="M 275 105v 10h 5l 5 -5l -5 -5h -5z" transform="rotate(-90,280,110)"/><path d="M 275 115v 10h 5l 5 -5l -5 -5h -5z" transform="rotate(90,280,120)"/><path d="M 276.42857142857144 136.42857142857142v 7.142857142857143h 7.142857142857143v -7.142857142857143z" transform="rotate(45,280,140)"/><path d="M 276.42857142857144 166.42857142857142v 7.142857142857143h 7.142857142857143v -7.142857142857143z" transform="rotate(45,280,170)"/><path d="M 275 195v 10h 5l 5 -5l -5 -5h -5z" transform="rotate(-90,280,200)"/><path d="M 275 205v 10h 5l 5 -5l -5 -5h -5z" transform="rotate(90,280,210)"/><path d="M 276.42857142857144 226.42857142857142v 7.142857142857143h 7.142857142857143v -7.142857142857143z" transform="rotate(45,280,230)"/><path d="M 275 245v 10h 5l 5 -5l -5 -5h -5z" transform="rotate(-90,280,250)"/><path d="M 275 255v 10h 5l 5 -5l -5 -5h -5z" transform="rotate(90,280,260)"/><path d="M 276.42857142857144 276.42857142857144v 7.142857142857143h 7.142857142857143v -7.142857142857143z" transform="rotate(45,280,280)"/><path d="M 285 135v 10h 5l 5 -5l -5 -5h -5z" transform="rotate(-90,290,140)"/><rect x="285" y="145" width="10" height="10" transform="rotate(0,290,150)"/><rect x="285" y="155" width="10" height="10" transform="rotate(0,290,160)"/><path d="M 285 165v 10h 5l 5 -5l -5 -5h -5z" transform="rotate(90,290,170)"/><path d="M 285 185v 10h 5l 5 -5l -5 -5h -5z" transform="rotate(-90,290,190)"/><rect x="285" y="195" width="10" height="10" transform="rotate(0,290,200)"/><rect x="285" y="205" width="10" height="10" transform="rotate(0,290,210)"/><path d="M 285 215v 10h 5l 5 -5l -5 -5h -5z" transform="rotate(90,290,220)"/><path d="M 286.42857142857144 236.42857142857142v 7.142857142857143h 7.142857142857143v -7.142857142857143z" transform="rotate(45,290,240)"/><path d="M 286.42857142857144 256.42857142857144v 7.142857142857143h 7.142857142857143v -7.142857142857143z" transform="rotate(45,290,260)"/><path d="M 286.42857142857144 276.42857142857144v 7.142857142857143h 7.142857142857143v -7.142857142857143z" transform="rotate(45,290,280)"/></g><g class="green-dots"/><g class="corners-square-color-0-0"><path clip-rule="evenodd" d="M 5 15v 50a 10 10, 0, 0, 0, 10 10h 50a 10 10, 0, 0, 0, 10 -10v -50a 10 10, 0, 0, 0, -10 -10h -50a 10 10, 0, 0, 0, -10 10zM 20 15h 40a 5 5, 0, 0, 1, 5 5v 40a 5 5, 0, 0, 1, -5 5h -40a 5 5, 0, 0, 1, -5 -5v -40a 5 5, 0, 0, 1, 5 -5z" transform="rotate(0,40,40)"/></g><g class="corners-dot-color-0-0"><path d="M 29.285714285714285 29.285714285714285v 21.428571428571427h 21.428571428571427v -21.428571428571427z" transform="rotate(45,40,40)"/></g><g class="corners-square-color-1-0"><path clip-rule="evenodd" d="M 225 15v 50a 10 10, 0, 0, 0, 10 10h 50a 10 10, 0, 0, 0, 10 -10v -50a 10 10, 0, 0, 0, -10 -10h -50a 10 10, 0, 0, 0, -10 10zM 240 15h 40a 5 5, 0, 0, 1, 5 5v 40a 5 5, 0, 0, 1, -5 5h -40a 5 5, 0, 0, 1, -5 -5v -40a 5 5, 0, 0, 1, 5 -5z" transform="rotate(90,260,40)"/></g><g class="corners-dot-color-1-0"><path d="M 249.28571428571428 29.285714285714285v 21.428571428571427h 21.428571428571427v -21.428571428571427z" transform="rotate(135,260,40)"/></g><g class="corners-square-color-0-1"><path clip-rule="evenodd" d="M 5 235v 50a 10 10, 0, 0, 0, 10 10h 50a 10 10, 0, 0, 0, 10 -10v -50a 10 10, 0, 0, 0, -10 -10h -50a 10 10, 0, 0, 0, -10 10zM 20 235h 40a 5 5, 0, 0, 1, 5 5v 40a 5 5, 0, 0, 1, -5 5h -40a 5 5, 0, 0, 1, -5 -5v -40a 5 5, 0, 0, 1, 5 -5z" transform="rotate(-90,40,260)"/></g><g class="corners-dot-color-0-1"><path d="M 29.285714285714285 249.28571428571428v 21.428571428571427h 21.428571428571427v -21.428571428571427z" transform="rotate(-45,40,260)"/></g><svg width="66px" height="66px" viewBox="0 0 300 300" fill="none" xmlns="http://www.w3.org/2000/svg" x="117" y="117"><path d="M102.325 93.0038V92.1831C102.325 91.5969 102.439 91.1769 102.666 90.9228C102.914 90.6688 103.234 90.5418 103.626 90.5418C104.018 90.5418 104.327 90.6688 104.554 90.9228C104.802 91.1769 104.926 91.5969 104.926 92.1831V98.4552C104.926 99.0414 104.802 99.4615 104.554 99.7155C104.327 99.9695 104.018 100.097 103.626 100.097C103.254 100.097 102.945 99.9793 102.697 99.7448C102.47 99.5103 102.346 99.1293 102.325 98.6018C102.222 96.9605 101.324 95.4853 99.6322 94.1761C97.9605 92.867 95.7625 92.2124 93.0382 92.2124C90.1695 92.2124 87.889 92.9158 86.1967 94.3227C84.5043 95.71 83.6582 97.3512 83.6582 99.2466C83.6582 100.224 83.8955 101.113 84.3702 101.914C84.8449 102.715 85.4743 103.369 86.2586 103.877C87.0428 104.366 87.9303 104.766 88.9209 105.079C89.9115 105.372 91.4594 105.685 93.5645 106.017C97.0937 106.564 99.529 107.121 100.87 107.688C102.666 108.45 104.018 109.505 104.926 110.853C105.855 112.201 106.319 113.794 106.319 115.63C106.319 118.444 105.132 120.847 102.759 122.84C100.385 124.814 97.1865 125.8 93.1621 125.8C88.6423 125.8 85.0306 124.462 82.327 121.785V123.192C82.327 123.778 82.2032 124.198 81.9555 124.452C81.7285 124.706 81.4189 124.833 81.0268 124.833C80.6553 124.833 80.3457 124.706 80.0981 124.452C79.8504 124.198 79.7266 123.778 79.7266 123.192V116.392C79.7266 115.787 79.8401 115.357 80.0671 115.103C80.3148 114.849 80.6346 114.722 81.0268 114.722C81.3983 114.722 81.6975 114.839 81.9245 115.073C82.1722 115.308 82.3063 115.689 82.327 116.216C82.4302 118.014 83.4414 119.655 85.3608 121.14C87.3008 122.606 89.9012 123.338 93.1621 123.338C96.4229 123.338 98.9924 122.567 100.87 121.023C102.769 119.479 103.719 117.653 103.719 115.542C103.719 114.253 103.357 113.11 102.635 112.113C101.913 111.097 100.84 110.296 99.4155 109.71C98.4248 109.299 96.361 108.84 93.224 108.332C88.9106 107.648 85.8045 106.603 83.9058 105.196C82.0071 103.789 81.0577 101.787 81.0577 99.1879C81.0577 96.6088 82.1412 94.3911 84.3083 92.5348C86.4959 90.6786 89.3749 89.7505 92.9454 89.7505C96.5777 89.7505 99.7044 90.8349 102.325 93.0038Z" fill="black"/><path d="M142.539 93.9123V92.1831C142.539 91.5969 142.653 91.1769 142.88 90.9228C143.127 90.6688 143.447 90.5418 143.839 90.5418C144.231 90.5418 144.541 90.6688 144.768 90.9228C145.016 91.1769 145.14 91.5969 145.14 92.1831V99.0121C145.14 99.6178 145.016 100.048 144.768 100.302C144.541 100.556 144.231 100.683 143.839 100.683C143.488 100.683 143.189 100.565 142.942 100.331C142.715 100.097 142.58 99.7155 142.539 99.1879C142.436 97.5466 141.497 96.091 139.722 94.8209C137.328 93.0819 134.604 92.2124 131.549 92.2124C129.547 92.2124 127.659 92.6325 125.884 93.4727C124.563 94.0784 123.511 94.8209 122.726 95.7002C121.364 97.2242 120.281 98.9144 119.476 100.771C118.898 102.138 118.609 103.682 118.609 105.401V109.71C118.609 113.383 120.012 116.578 122.819 119.294C125.626 121.99 128.887 123.338 132.602 123.338C134.831 123.338 136.822 122.879 138.577 121.961C140.351 121.043 142.064 119.655 143.715 117.799C144.066 117.389 144.458 117.184 144.892 117.184C145.263 117.184 145.563 117.291 145.79 117.506C146.017 117.721 146.13 117.994 146.13 118.327C146.13 118.776 145.686 119.46 144.799 120.378C143.107 122.176 141.198 123.534 139.072 124.452C136.967 125.351 134.831 125.8 132.664 125.8C130.786 125.8 128.877 125.458 126.937 124.775C125.451 124.247 124.223 123.632 123.253 122.928C122.283 122.225 121.086 121.043 119.662 119.382C118.258 117.701 117.299 116.158 116.783 114.751C116.267 113.325 116.009 111.761 116.009 110.062V105.05C116.009 102.627 116.69 100.155 118.052 97.6346C119.435 95.0945 121.313 93.1503 123.686 91.8021C126.08 90.4344 128.67 89.7505 131.456 89.7505C135.749 89.7505 139.443 91.1378 142.539 93.9123Z" fill="black"/><path d="M177.738 113.373H160.649L157.151 122.371H162.135C162.754 122.371 163.198 122.488 163.466 122.723C163.735 122.938 163.869 123.231 163.869 123.602C163.869 123.954 163.735 124.247 163.466 124.481C163.198 124.716 162.754 124.833 162.135 124.833H152.415C151.795 124.833 151.352 124.716 151.083 124.481C150.815 124.247 150.681 123.954 150.681 123.602C150.681 123.231 150.815 122.938 151.083 122.723C151.352 122.488 151.795 122.371 152.415 122.371H154.427L165.912 93.0038H158.234C157.615 93.0038 157.172 92.8963 156.903 92.6814C156.635 92.4469 156.501 92.144 156.501 91.7728C156.501 91.4016 156.635 91.1085 156.903 90.8935C157.172 90.6591 157.615 90.5418 158.234 90.5418H171.329L184.022 122.371H186.034C186.653 122.371 187.097 122.488 187.365 122.723C187.634 122.938 187.768 123.231 187.768 123.602C187.768 123.954 187.634 124.247 187.365 124.481C187.097 124.716 186.653 124.833 186.034 124.833H176.345C175.705 124.833 175.251 124.716 174.982 124.481C174.714 124.247 174.58 123.954 174.58 123.602C174.58 123.231 174.714 122.938 174.982 122.723C175.251 122.488 175.705 122.371 176.345 122.371H181.298L177.738 113.373ZM176.747 110.911L169.565 93.0038H168.605L161.64 110.911H176.747Z" fill="black"/><path d="M219.994 124.833H216.651L197.488 94.1468V122.371H202.287C202.927 122.371 203.381 122.488 203.649 122.723C203.917 122.938 204.051 123.231 204.051 123.602C204.051 123.954 203.917 124.247 203.649 124.481C203.381 124.716 202.927 124.833 202.287 124.833H192.721C192.081 124.833 191.627 124.716 191.359 124.481C191.091 124.247 190.956 123.954 190.956 123.602C190.956 123.231 191.091 122.938 191.359 122.723C191.627 122.488 192.081 122.371 192.721 122.371H194.888V93.0038H191.39C190.771 93.0038 190.327 92.8963 190.059 92.6814C189.79 92.4469 189.656 92.144 189.656 91.7728C189.656 91.4016 189.79 91.1085 190.059 90.8935C190.327 90.6591 190.771 90.5418 191.39 90.5418H198.2L217.394 121.287V93.0038H212.596C211.977 93.0038 211.533 92.8963 211.264 92.6814C210.996 92.4469 210.862 92.144 210.862 91.7728C210.862 91.4016 210.986 91.1085 211.234 90.8935C211.502 90.6591 211.956 90.5418 212.596 90.5418H222.192C222.812 90.5418 223.255 90.6591 223.524 90.8935C223.792 91.1085 223.926 91.4016 223.926 91.7728C223.926 92.144 223.792 92.4469 223.524 92.6814C223.255 92.8963 222.812 93.0038 222.192 93.0038H219.994V124.833Z" fill="black"/><path d="M120.338 188.709H114.303L93.9971 142.502H92.9913V205.494H102.736C103.993 205.494 104.894 205.746 105.439 206.249C105.984 206.71 106.256 207.338 106.256 208.135C106.256 208.889 105.984 209.518 105.439 210.021C104.894 210.523 103.993 210.775 102.736 210.775H83.2471C81.9897 210.775 81.0887 210.523 80.5438 210.021C79.999 209.518 79.7266 208.889 79.7266 208.135C79.7266 207.338 79.999 206.71 80.5438 206.249C81.0887 205.746 81.9897 205.494 83.2471 205.494H87.7105V142.502H84.3786C83.1213 142.502 82.2202 142.272 81.6754 141.811C81.1306 141.308 80.8582 140.658 80.8582 139.862C80.8582 139.066 81.1306 138.437 81.6754 137.976C82.2202 137.473 83.1213 137.222 84.3786 137.222H97.329L117.32 182.737L136.997 137.222H149.948C151.247 137.222 152.169 137.473 152.714 137.976C153.259 138.437 153.531 139.066 153.531 139.862C153.531 140.658 153.259 141.308 152.714 141.811C152.169 142.272 151.247 142.502 149.948 142.502H146.679V205.494H151.079C152.379 205.494 153.301 205.746 153.846 206.249C154.39 206.71 154.663 207.338 154.663 208.135C154.663 208.889 154.39 209.518 153.846 210.021C153.301 210.523 152.379 210.775 151.079 210.775H131.654C130.397 210.775 129.475 210.523 128.888 210.021C128.343 209.518 128.071 208.889 128.071 208.135C128.071 207.338 128.343 206.71 128.888 206.249C129.433 205.746 130.355 205.494 131.654 205.494H141.398V142.502H140.267L120.338 188.709Z" fill="black"/><path d="M176.98 175.256V205.494H217.592V189.903C217.592 188.646 217.822 187.745 218.283 187.2C218.786 186.655 219.436 186.383 220.232 186.383C221.028 186.383 221.657 186.655 222.118 187.2C222.621 187.745 222.872 188.646 222.872 189.903V210.775H164.596C163.338 210.775 162.437 210.523 161.892 210.021C161.348 209.518 161.075 208.889 161.075 208.135C161.075 207.338 161.348 206.71 161.892 206.249C162.437 205.746 163.338 205.494 164.596 205.494H171.7V142.502H164.596C163.338 142.502 162.437 142.272 161.892 141.811C161.348 141.308 161.075 140.658 161.075 139.862C161.075 139.066 161.348 138.437 161.892 137.976C162.437 137.473 163.338 137.222 164.596 137.222H220.106V155.39C220.106 156.647 219.855 157.548 219.352 158.093C218.891 158.638 218.262 158.91 217.466 158.91C216.67 158.91 216.02 158.638 215.517 158.093C215.056 157.548 214.826 156.647 214.826 155.39V142.502H176.98V169.975H195.903V164.003C195.903 162.745 196.154 161.844 196.657 161.299C197.16 160.755 197.81 160.482 198.606 160.482C199.361 160.482 199.989 160.755 200.492 161.299C200.995 161.844 201.247 162.745 201.247 164.003V181.228C201.247 182.485 200.995 183.386 200.492 183.931C199.989 184.476 199.361 184.748 198.606 184.748C197.81 184.748 197.16 184.476 196.657 183.931C196.154 183.386 195.903 182.485 195.903 181.228V175.256H176.98Z" fill="black"/><path d="M53.814 56.4247C77.6009 28.5168 115.783 12.9249 151.79 15.2229C154.502 15.3676 157.165 15.5992 159.836 15.9171C169.851 16.5179 183.794 18.8983 196.913 23.7741C197.061 23.829 197.21 23.8847 197.358 23.9401C210.364 28.6871 222.279 35.7372 230.198 41.5581C258.481 62.6468 267.93 83.6524 271.817 93.459C275.195 102.977 275.898 105.628 277.261 109.51C277.295 109.617 277.329 109.723 277.364 109.83C277.368 109.836 277.373 109.843 277.376 109.85C277.445 109.975 277.495 110.083 277.52 110.139C277.57 110.252 277.607 110.347 277.62 110.383C277.652 110.465 277.675 110.537 277.683 110.561C277.717 110.662 277.756 110.778 277.779 110.853C277.998 111.557 278.62 113.759 279.029 115.531C279.451 117.345 279.677 118.661 279.892 120.038C279.913 120.178 279.936 120.318 279.957 120.458C280.145 121.704 280.339 123.063 280.609 125.018C280.771 126.203 280.432 127.127 279.874 127.083C279.316 127.037 278.749 126.061 278.584 124.892C278.297 122.867 278.088 121.446 277.897 120.214C277.876 120.078 277.856 119.941 277.834 119.804C277.626 118.508 277.419 117.357 277.049 115.775C276.465 113.498 275.937 111.829 275.437 110.307C274.052 106.347 273.239 103.33 269.702 93.5244C265.982 84.4122 257.071 64.131 229.056 43.1728C221.239 37.4241 209.485 30.4724 196.681 25.7987C196.532 25.7437 196.383 25.6873 196.233 25.6328C183.301 20.8265 169.58 18.4847 159.733 17.8914C157.081 17.7161 154.452 17.6264 151.79 17.6172C115.906 17.4293 81.4109 32.6831 55.371 57.6571C50.441 62.8416 46.3149 67.9275 42.7942 72.8506C32.5028 87.3889 27.073 100.302 24.4371 112.989C23.8981 115.769 21.9277 122.964 20.7647 133.567C20.4282 136.676 20.167 140.08 20.0503 143.783C19.9747 146.198 19.9601 148.714 20.0277 151.371C20.2135 158.635 21.0198 166.736 22.8726 175.357C23.4002 177.809 23.9508 180.011 24.5176 182.077C27.1333 190.853 29.0271 197.951 37.0768 213.48C42.1167 222.98 50.3562 234.95 60.4143 244.924C70.3744 254.994 81.9621 262.917 90.4753 267.564C99.0129 272.237 104.177 274.24 107.789 275.711C108.798 276.111 109.692 276.455 110.515 276.762C112.672 277.564 114.347 278.144 116.59 278.814C129.053 282.42 139.098 283.643 151.79 283.465C155.588 283.383 159.594 283.132 163.979 282.62C165.167 282.481 166.261 282.78 166.414 283.311C166.568 283.842 165.699 284.412 164.492 284.556C159.927 285.099 155.75 285.366 151.79 285.449C138.976 285.626 128.686 284.382 115.961 280.691C113.586 279.98 111.761 279.343 109.537 278.51C108.714 278.201 107.838 277.863 106.868 277.476C103.264 276.002 98.0806 273.987 89.4616 269.265C80.8373 264.551 69.0966 256.519 59.0057 246.315C48.8157 236.209 40.4693 224.083 35.3638 214.471C27.265 198.864 25.3643 191.8 22.6965 182.93C22.1151 180.833 21.5443 178.584 20.9986 176.076C19.0665 167.188 18.2312 158.836 18.0431 151.371C17.9782 148.789 17.9894 146.335 18.0582 143.987C18.1692 140.231 18.4264 136.789 18.7599 133.642C19.9547 122.662 21.8582 115.807 22.299 113.381C24.9719 100.04 30.7448 86.3623 41.3227 71.5025C44.865 66.5673 48.9783 61.5229 53.814 56.4247ZM35.5952 107.486C36.1848 107.441 36.4226 108.277 36.1511 109.347C36.0082 109.912 35.7849 110.845 35.5097 112.106C34.0819 118.515 31.4274 133.637 32.7353 151.371C33.2346 158.644 34.3354 166.316 36.0731 173.941C36.5738 176.141 37.094 178.116 37.6251 179.962C40.0745 187.842 43.0013 193.877 50.2723 207.58C69.8527 243.878 109.759 268.966 151.79 268.91C176.293 269.188 200.873 261.175 220.238 246.322C235.369 234.789 247.827 219.97 256.268 202.993C264.299 189.193 270.006 160.281 269.43 153.313C269.465 152.233 269.92 151.361 270.467 151.371C271.012 151.382 271.442 152.286 271.407 153.386C271.989 160.416 266.231 189.727 258.116 203.722C249.573 220.969 236.957 236.024 221.624 247.758C201.91 262.937 176.967 271.491 151.79 271.631C108.832 272.471 66.7346 247.397 46.4012 209.625C38.9101 195.461 38.2908 188.718 35.799 180.792C35.2531 178.912 34.7164 176.899 34.1967 174.638C32.3842 166.766 31.2445 158.85 30.733 151.371C29.4531 133.891 31.9538 118.987 33.3591 112.47C33.6392 111.146 33.8704 110.156 34.0206 109.548C34.2887 108.46 35.0055 107.531 35.5952 107.486ZM281.32 170.488C281.858 170.579 282.142 171.618 281.929 172.814C280.602 180.317 277.557 194.673 269.478 210.586C264.633 220.187 257.971 230.27 249.604 239.474C246.462 242.889 244.448 245.14 239.767 249.619C237.163 252.068 233.723 255.19 228.478 259.129C227.508 259.855 226.401 260.102 226.023 259.7C225.646 259.297 226.126 258.409 227.079 257.698C232.12 253.929 235.488 250.904 238.064 248.498C242.797 244.002 244.905 241.658 248.098 238.191C256.292 229.186 262.85 219.3 267.629 209.861C275.642 194.141 278.671 179.895 279.985 172.452C280.194 171.275 280.781 170.398 281.32 170.488ZM151.79 40.0541C155.972 39.6273 161.13 39.2671 168.451 39.9384C175.343 40.5922 181.233 42.1214 186.273 43.8418C187.722 44.3371 189.088 44.8468 190.388 45.3559C193.683 46.6477 196.558 47.9475 199.275 49.1612C216.099 56.8914 223.853 64.7808 228.38 69.5735C231.823 73.3868 233.322 75.8722 234.402 77.6393C234.725 78.1758 235.004 78.6537 235.277 79.093C237.7 83.0155 239.975 86.4931 242.42 90.8358C242.96 91.799 243.507 92.8085 244.055 93.874C245.885 97.4352 247.332 100.015 248.52 102.023C249.039 102.902 249.504 103.677 249.936 104.41C249.945 104.423 249.953 104.437 249.962 104.45C250.021 104.552 250.081 104.654 250.14 104.754C250.184 104.83 250.23 104.905 250.273 104.981C250.297 105.008 250.316 105.032 250.331 105.051C250.343 105.066 250.353 105.076 250.359 105.084L250.361 105.089C250.466 105.223 250.542 105.345 250.558 105.37C250.584 105.414 250.604 105.456 250.616 105.476C250.675 105.583 250.748 105.724 250.794 105.818C250.913 106.06 251.117 106.484 251.42 107.144C251.703 107.71 251.992 108.249 252.346 108.927C252.368 108.968 252.39 109.011 252.411 109.052C252.754 109.711 253.149 110.488 253.611 111.479C254.032 112.382 253.986 113.376 253.523 113.688C253.059 113.999 252.363 113.522 251.954 112.636C251.53 111.718 251.169 111.004 250.834 110.355C250.813 110.314 250.79 110.273 250.769 110.232C250.42 109.558 250.082 108.915 249.738 108.22C249.623 107.988 249.506 107.748 249.398 107.523C249.191 107.124 248.94 106.675 248.633 106.145C248.572 106.039 248.51 105.927 248.445 105.816C248.025 105.098 247.524 104.264 246.973 103.323C245.68 101.122 244.118 98.3175 242.151 94.5154C241.634 93.518 241.112 92.561 240.589 91.6331C238.171 87.3546 235.768 83.6889 233.212 79.6111C232.86 79.052 232.531 78.5053 232.173 77.9235C231.103 76.207 229.826 74.1266 226.689 70.67C222.434 66.2041 215.023 58.6052 198.6 51.0274C195.802 49.7714 192.788 48.4124 189.495 47.129C188.242 46.6408 186.944 46.1647 185.606 45.708C180.732 44.0459 175.131 42.5934 168.595 41.953C161.12 41.2488 156.002 41.6395 151.79 42.0788C151.511 42.109 151.237 42.1403 150.967 42.1718C150.816 42.19 150.665 42.2084 150.514 42.2272C150.328 42.2498 150.142 42.272 149.958 42.2951C143.535 43.0281 133.927 44.2626 126.719 44.9485C122.189 45.3425 118.455 46.0851 113.803 47.3453C111.508 47.9818 109.154 48.9199 105.633 50.5797C104.647 51.0471 103.571 51.5735 102.383 52.1793C97.0952 54.9379 89.6808 58.8403 79.5134 66.6711C76.8741 68.7272 74.6416 70.7593 72.6238 72.7223C71.9972 73.3322 71.3887 73.9375 70.7977 74.5357C68.3345 77.0292 66.1236 79.4264 63.9056 81.5628C62.0798 83.3115 58.2236 87.4219 54.722 92.6089C51.1697 97.8034 48.1963 103.865 47.0024 108.514C46.8766 108.996 46.751 109.482 46.6301 109.968C45.5811 114.16 44.8019 118.474 44.8266 122.055C45.6722 130.254 44.8289 140.539 45.0052 151.371C45.0982 162.289 46.3386 173.573 48.7933 182.253C48.8559 182.479 48.9205 182.705 48.9845 182.93C54.7177 202.926 64.632 215.031 67.749 218.978C67.9 219.164 68.0398 219.333 68.1641 219.484C68.2749 219.619 68.3747 219.741 68.4634 219.849C69.8 221.463 71.0751 222.813 72.4402 224.192C72.5146 224.267 72.5894 224.344 72.6641 224.419C74.1125 225.87 75.6618 227.36 77.491 229.119C84.3144 235.653 90.7069 240.046 96.4317 243.4C97.4931 244.019 98.5367 244.605 99.5633 245.158C99.5662 245.159 99.5704 245.161 99.5733 245.163C104.076 247.583 108.229 249.423 112.216 251.01C119.507 253.88 124.713 255.033 128.736 255.799C130.008 256.035 131.174 256.223 132.281 256.385C134.678 256.735 136.777 256.966 138.941 257.2C143.017 257.635 146.788 257.724 150.499 257.638C150.831 257.63 151.164 257.621 151.495 257.61C151.593 257.607 151.692 257.603 151.79 257.6C155.728 257.459 159.584 257.132 163.642 256.679C164.609 256.571 165.464 256.907 165.556 257.446C165.646 257.985 164.923 258.527 163.936 258.639C159.821 259.099 155.9 259.442 151.79 259.587L150.768 259.617C146.996 259.712 143.085 259.628 138.858 259.182C136.73 258.954 134.716 258.736 132.318 258.395C131.176 258.231 129.958 258.039 128.591 257.788C124.426 257.004 119.053 255.824 111.551 252.876C107.539 251.281 103.36 249.438 98.7735 246.981C97.7203 246.416 96.6463 245.817 95.5513 245.18C89.702 241.763 83.1532 237.275 76.1629 230.588C74.4021 228.896 72.9034 227.462 71.4315 225.993C71.3492 225.91 71.267 225.827 71.185 225.744C69.8044 224.355 68.4305 222.909 66.9919 221.174C66.8002 220.943 66.5563 220.645 66.265 220.286C63.0843 216.264 52.9328 203.897 47.0753 183.453C47.0578 183.39 47.0399 183.327 47.0225 183.264C43.2957 169.587 43.1485 161.547 42.3389 155.571C42.1596 154.068 42.0439 152.671 41.9717 151.371C41.8184 148.579 41.8577 146.31 41.9515 144.299C41.978 143.739 42.0073 143.209 42.0396 142.707C42.1801 140.539 42.3463 138.823 42.4295 137.098C42.7031 131.885 42.7765 128.08 42.6734 123.308C42.5959 119.241 43.4508 114.404 44.477 110.209C44.4784 110.203 44.4805 110.198 44.482 110.192C44.6027 109.693 44.7252 109.201 44.8467 108.723C46.1885 103.334 49.5144 96.6813 53.1902 91.3363C56.8606 85.918 60.9262 81.607 62.9347 79.7041C64.8972 77.8355 66.9153 75.6505 69.4092 73.1247C69.981 72.5463 70.5779 71.9502 71.2026 71.3416C73.2663 69.331 75.6425 67.1698 78.4192 65.0136C88.6618 57.1472 96.0946 53.2334 101.379 50.469C102.474 49.909 103.499 49.4035 104.463 48.9424L104.468 48.9399C108.117 47.2015 110.919 46.0701 113.601 45.3383C118.367 44.0616 122.343 43.2787 127.162 42.8886C133.803 42.2935 143.003 41.1032 149.128 40.371C149.464 40.327 149.808 40.2829 150.157 40.2403C150.684 40.1758 151.227 40.1136 151.79 40.0541ZM258.058 168.687C258.595 168.784 258.889 169.662 258.697 170.639C257.694 175.903 256.535 182.512 254.411 187.429C254.382 187.498 254.35 187.567 254.321 187.636C253.462 189.633 252.476 191.634 251.199 193.984C251.036 194.284 250.867 194.59 250.693 194.902C249.146 197.669 247.173 201.018 244.194 205.349C234.205 219.869 224.304 229.519 221.219 232.557C214.977 238.547 207.337 244.079 195.846 249.34C194.794 249.816 193.702 250.287 192.584 250.749C191.674 251.124 190.755 251.008 190.536 250.507C190.319 250.006 190.869 249.317 191.759 248.95C192.834 248.508 193.883 248.055 194.893 247.6C194.897 247.598 194.903 247.594 194.908 247.592C206.26 242.405 213.587 237.078 219.591 231.36C222.695 228.321 232.686 218.648 242.7 204.019C245.646 199.714 247.593 196.382 249.114 193.642C249.28 193.341 249.442 193.048 249.597 192.761C249.6 192.755 249.603 192.748 249.607 192.741C250.859 190.418 251.783 188.525 252.585 186.65C252.602 186.61 252.619 186.569 252.635 186.529C254.736 181.645 255.802 175.265 256.758 170.254C256.946 169.297 257.521 168.591 258.058 168.687ZM139.595 29.5135C143.311 29.4735 147.017 29.5576 151.79 29.7424C154.052 29.834 156.511 29.9538 159.341 30.1498C168.207 30.7205 180.494 32.3567 192.375 36.2564C192.384 36.2596 192.393 36.2632 192.403 36.2665C204.207 40.0149 216.011 45.1832 223.462 50.6551C249.446 70.0254 257.171 89.7074 260.612 98.5898C266.474 114.545 272.97 133.352 270.577 150.803C270.048 152.701 268.591 149.505 268.867 146.077C268.874 145.953 268.881 145.829 268.887 145.705C268.943 144.516 268.972 143.462 268.932 141.997C268.825 139.882 268.657 138.306 268.485 136.872C268.717 132.996 262.601 107.371 258.529 98.7331C255.205 90.389 245.945 72.854 220.849 54.1687C213.855 49.0398 203.738 41.9943 191.988 38.2181C191.956 38.2078 191.924 38.1958 191.892 38.1854C180.299 34.3605 168.102 32.6959 159.233 32.1266C156.458 31.9338 154.029 31.8139 151.79 31.7242C146.789 31.5333 142.94 31.4611 139.168 31.5155C139.115 31.5161 139.062 31.5173 139.009 31.518C133.661 31.6471 128.395 31.9279 120.275 33.9878C114.731 35.4163 107.945 37.5836 100.992 40.6603C86.7858 46.7397 72.4298 57.3112 64.0263 66.4321C63.2587 67.2432 62.2973 67.6424 61.8631 67.3074C61.4305 66.9716 61.6989 66.0149 62.4794 65.1872C71.0748 55.8228 85.8727 44.9339 100.388 38.7614C107.415 35.6664 114.238 33.5035 119.752 32.0814C128.323 29.9042 133.93 29.6316 139.419 29.5185C139.478 29.5175 139.537 29.5144 139.595 29.5135ZM255.898 116.386C256.418 116.221 257.092 116.873 257.384 117.848C258.077 120.16 258.698 122.504 259.236 124.855C259.462 125.842 259.196 126.735 258.662 126.847C258.127 126.957 257.528 126.259 257.306 125.292C256.778 122.984 256.171 120.682 255.49 118.411C255.205 117.456 255.378 116.553 255.898 116.386Z" fill="black"/></svg></svg></g></svg></svg>